<svg xmlns="http://www.w3.org/2000/svg" viewBox="0 0 600 400" width="100%" height="100%">
  <defs>
    <linearGradient id="bgCase" x1="0%" y1="0%" x2="100%" y2="100%">
      <stop offset="0%" stop-color="#0b1120"/>
      <stop offset="100%" stop-color="#1e293b"/>
    </linearGradient>
  </defs>
  <rect width="600" height="400" fill="url(#bgCase)" rx="16"/>

  <ellipse cx="300" cy="350" rx="110" ry="18" fill="#020617" opacity="0.6"/>

  <!-- Military Case Outline -->
  <rect x="220" y="80" width="160" height="260" rx="32" fill="#1e293b" stroke="#64748b" stroke-width="2.5"/>
  <rect x="230" y="90" width="140" height="240" rx="24" fill="#0f172a"/>

  <!-- Reinforced Air-Cushion Bumpers in 4 corners -->
  <rect x="214" y="74" width="22" height="22" rx="6" fill="#38bdf8"/>
  <rect x="364" y="74" width="22" height="22" rx="6" fill="#38bdf8"/>
  <rect x="214" y="324" width="22" height="22" rx="6" fill="#38bdf8"/>
  <rect x="364" y="324" width="22" height="22" rx="6" fill="#38bdf8"/>

  <!-- Camera Island Protection Lip -->
  <rect x="240" y="105" width="55" height="60" rx="14" fill="#1e293b" stroke="#334155" stroke-width="2"/>
  <circle cx="255" cy="122" r="9" fill="#020617" stroke="#64748b"/>
  <circle cx="255" cy="148" r="9" fill="#020617" stroke="#64748b"/>
  <circle cx="280" cy="135" r="7" fill="#020617" stroke="#64748b"/>

  <!-- MagSafe Ring embedded -->
  <circle cx="300" cy="220" r="32" fill="none" stroke="#38bdf8" stroke-width="3" stroke-dasharray="14 4"/>
  <rect x="297" y="258" width="6" height="12" rx="3" fill="#38bdf8"/>

  <rect x="410" y="30" width="160" height="32" rx="16" fill="rgba(14, 165, 233, 0.15)" stroke="#38bdf8" stroke-width="1"/>
  <text x="490" y="51" text-anchor="middle" fill="#38bdf8" font-family="system-ui" font-size="12" font-weight="bold">🛡️ 15FT DROP TESTED</text>
</svg>
